<svg width="183" height="167" viewBox="0 0 183 167" fill="none" xmlns="http://www.w3.org/2000/svg">
<path fill-rule="evenodd" clip-rule="evenodd" d="M45.627 5.99747V65.9989C46.5315 66.0205 47.1504 66.6917 47.1504 67.6496C47.1504 68.5716 46.5646 69.2582 45.627 69.2952V86.0778C48.9626 86.0778 51.6658 88.7626 51.6658 92.0763H83.1247C83.1247 88.7626 85.828 86.0778 89.1636 86.0778V69.2592C88.3843 69.1338 87.8554 68.5038 87.8554 67.6517C87.8554 66.7852 88.3946 66.1767 89.1636 66.0462V5.99747C85.828 5.99747 83.1247 3.31069 83.1247 0H51.6668C51.6668 3.31171 48.9626 5.99747 45.627 5.99747ZM85.5268 67.6506C85.5268 68.5983 84.9183 69.3086 83.9382 69.3086C83.0109 69.3086 82.3734 68.5983 82.3734 67.6506C82.3734 66.6773 83.0368 65.9917 83.9641 65.9917C84.8914 65.9917 85.5268 66.6773 85.5268 67.6506ZM80.0448 67.6506C80.0448 68.5983 79.4352 69.3086 78.4551 69.3086C77.5278 69.3086 76.8913 68.5983 76.8913 67.6506C76.8913 66.6773 77.5547 65.9917 78.481 65.9917C79.4093 65.9917 80.0448 66.6773 80.0448 67.6506ZM74.5627 67.6506C74.5627 68.5983 73.9531 69.3086 72.9731 69.3086C72.0447 69.3086 71.4113 68.5983 71.4113 67.6506C71.4113 66.6773 72.0727 65.9917 73 65.9917C73.9262 65.9917 74.5627 66.6773 74.5627 67.6506ZM69.0796 67.6506C69.0796 68.5983 68.4701 69.3086 67.49 69.3086C66.5627 69.3086 65.9262 68.5983 65.9262 67.6506C65.9262 66.6773 66.5875 65.9917 67.5158 65.9917C68.4442 65.9917 69.0796 66.6773 69.0796 67.6506ZM63.5976 67.6506C63.5976 68.5983 62.988 69.3086 62.0079 69.3086C61.0806 69.3086 60.4462 68.5983 60.4462 67.6506C60.4462 66.6773 61.1086 65.9917 62.0348 65.9917C62.9632 65.9917 63.5976 66.6773 63.5976 67.6506ZM58.1145 67.6506C58.1145 68.5983 57.507 69.3086 56.5259 69.3086C55.5965 69.3086 54.9621 68.5983 54.9621 67.6506C54.9621 66.6773 55.6244 65.9917 56.5517 65.9917C57.479 65.9917 58.1145 66.6773 58.1145 67.6506ZM52.6335 67.6506C52.6335 68.5983 52.0239 69.3086 51.0428 69.3086C50.1155 69.3086 49.4811 68.5983 49.4811 67.6506C49.4811 66.6773 50.1424 65.9917 51.0697 65.9917C51.997 65.9917 52.6335 66.6773 52.6335 67.6506ZM77.4895 10.076V28.7755H76.0416V10.076H77.4895ZM74.6372 10.076V28.7755H73.1449V10.076H74.6372ZM71.7415 10.076V28.7755H67.3958V10.076H71.7415ZM65.9024 10.076V28.7755H64.499V10.076H65.9024ZM63.0511 10.076V28.7755H60.1543V10.076H63.0511ZM58.6599 10.076V28.7755H57.2565V10.076H58.6599Z" fill="black"/>
<path fill-rule="evenodd" clip-rule="evenodd" d="M134.07 19.8503L105.742 6.26221C104.291 9.24295 100.681 10.4949 97.6772 9.05383L93.4298 17.7884V66.0468V69.6185V86.0805V90.3172H89.1628C88.1858 90.3172 87.3889 91.1076 87.3889 92.0789V96.3157H83.1239H80.3037L93.7465 102.763C95.1975 99.7806 98.8094 98.5297 101.813 99.9707L109.177 84.8255C108.532 84.3753 108.331 83.5797 108.704 82.8119C109.083 82.0328 109.835 81.7183 110.584 81.9321L136.88 27.8613C133.878 26.4193 132.621 22.8311 134.07 19.8503ZM96.7344 77.0694C96.3204 77.9214 95.4603 78.2976 94.5765 77.8741C93.7403 77.4743 93.4805 76.5616 93.8966 75.7064C94.3209 74.8307 95.2161 74.4987 96.0534 74.9006C96.8875 75.3025 97.1607 76.1926 96.7344 77.0694ZM114.148 21.4846L105.961 38.3227L104.697 37.7163L112.885 20.8781L114.148 21.4846ZM106.363 17.7504L107.628 18.3568L99.4386 35.195L98.175 34.5896L106.363 17.7504ZM101.669 79.4375C101.256 80.2916 100.395 80.6658 99.5121 80.2444C98.6759 79.8425 98.4151 78.9287 98.8311 78.0756C99.2575 77.1989 100.153 76.8679 100.989 77.2688C101.825 77.6676 102.097 78.5628 101.669 79.4375ZM100.784 35.8394L108.971 19.0013L111.58 20.2512L103.392 37.0903L100.784 35.8394ZM106.608 81.8056C106.193 82.6577 105.334 83.036 104.45 82.6115C103.614 82.2106 103.353 81.2969 103.768 80.4438C104.194 79.566 105.091 79.235 105.927 79.6369C106.76 80.0378 107.033 80.9279 106.608 81.8056ZM107.305 38.9682L115.494 22.1301L119.406 24.0059L111.218 40.845L107.305 38.9682ZM112.482 41.4515L120.67 24.6123L122.014 25.2568L113.826 42.0949L112.482 41.4515ZM116.395 43.3283L115.089 42.7024L123.278 25.8632L124.582 26.4891L116.395 43.3283Z" fill="black"/>
<path d="M17.6436 129.317V157.297H10.1024V129.317H0V122.864H27.6985V129.317H17.6436ZM37.5163 127.551C36.7575 128.288 35.8405 128.657 34.7654 128.657C33.6588 128.657 32.7181 128.288 31.9434 127.551C31.1688 126.813 30.7814 125.91 30.7814 124.842C30.7814 123.806 31.1688 122.919 31.9434 122.181C32.7181 121.443 33.6588 121.074 34.7654 121.074C35.8405 121.074 36.7575 121.443 37.5163 122.181C38.2752 122.919 38.6546 123.806 38.6546 124.842C38.6546 125.91 38.2752 126.813 37.5163 127.551ZM31.2083 131.437H38.3226V157.297H31.2083V131.437ZM51.2233 156.143C49.0416 154.934 47.3104 153.293 46.0298 151.22C44.7493 149.148 44.109 146.887 44.109 144.437C44.109 141.988 44.7493 139.735 46.0298 137.678C47.3104 135.621 49.0337 133.988 51.1996 132.779C53.3655 131.57 55.7291 130.966 58.2902 130.966C61.0411 130.966 63.5311 131.617 65.7603 132.92C67.9895 134.224 69.768 136.084 71.0961 138.502L64.6931 140.999C63.9343 139.711 63.0015 138.746 61.8948 138.102C60.7882 137.458 59.5866 137.136 58.2902 137.136C56.235 137.136 54.5354 137.827 53.1916 139.209C51.8478 140.59 51.1759 142.333 51.1759 144.437C51.1759 146.541 51.8557 148.284 53.2153 149.666C54.575 151.048 56.2824 151.738 58.3377 151.738C61.1834 151.738 63.3809 150.482 64.9303 147.97L70.9538 150.325C68.4558 155.413 64.2505 157.956 58.3377 157.956C55.7765 157.956 53.405 157.352 51.2233 156.143ZM83.3327 121.686V142.412L92.202 131.531H100.881L90.3997 143.589L101.308 157.297H92.7237L85.8939 148.818L83.3327 151.738V157.297H76.2184V121.686H83.3327ZM111.197 156.684C109.031 155.836 107.174 154.4 105.624 152.374C104.075 150.349 103.3 147.703 103.3 144.437C103.3 141.171 104.083 138.534 105.648 136.524C107.213 134.514 109.087 133.085 111.268 132.237C113.45 131.39 115.521 130.966 117.482 130.966C119.758 130.966 121.924 131.468 123.979 132.473C126.035 133.478 127.718 134.954 129.031 136.901C130.343 138.848 131.03 141.156 131.094 143.825C131.094 144.641 131.078 145.348 131.046 145.945C131.015 146.541 130.983 146.918 130.951 147.075H110.367C110.747 148.896 111.695 150.137 113.213 150.796C114.731 151.456 116.154 151.786 117.482 151.786C119.189 151.786 120.549 151.479 121.56 150.867C122.572 150.255 123.442 149.556 124.169 148.771L129.671 151.927C126.699 155.946 122.636 157.956 117.482 157.956C115.458 157.956 113.363 157.532 111.197 156.684ZM112.644 138.573C111.411 139.531 110.715 140.7 110.557 142.082H123.6C123.505 141.266 123.189 140.481 122.651 139.727C122.114 138.973 121.394 138.353 120.493 137.866C119.592 137.38 118.572 137.136 117.434 137.136C115.474 137.136 113.877 137.615 112.644 138.573ZM145.607 148.064C145.607 149.163 145.797 150.082 146.176 150.82C146.556 151.558 147.441 151.927 148.832 151.927C149.465 151.927 150.065 151.895 150.634 151.833V157.768C149.496 157.893 148.437 157.956 147.457 157.956C145.433 157.956 143.797 157.791 142.548 157.462C141.299 157.132 140.327 156.496 139.631 155.554C138.935 154.612 138.588 153.261 138.588 151.503V137.136H135.41V130.966H138.588V124.041H145.607V130.966H150.824V137.136H145.607V148.064ZM160.12 167L164.626 156.355L153.433 131.484H161.638L168.231 147.97L174.302 131.484H182.507L167.946 167H160.12Z" fill="black"/>
</svg>
